# xmcd
#
# Track frame offsets:
#	150
#	10037
#	20100
#	30112
#	38225
#	50265
#	63360
#	76327
#	85730
#	96245
#	106640
#	117190
#	127280
#	136015
#	144815
#	155812
#	164757
#	174265
#	183770
#	192747
#	203272
#	210400
#	219242
#	230907
#	241922
#	254002
#	262380
#	273410
#	286055
#
# Disc length: 3901 seconds
#
# Revision: 1
# Processed by: cddbd v1.5.2PL0 Copyright (c) Steve Scherf et al.
# Submitted via: audiograbber 1.83.01
#
DISCID=930f3b1d
DTITLE=The Easy Riders - Marianne Vol. 2
DYEAR=1900
DGENRE=Blues
TTITLE0=Strollin' Blues
TTITLE1=Weary Travelin' Blues
TTITLE2=The Blues Ain't Nothin'
TTITLE3=Times
TTITLE4=Lonesome Rider
TTITLE5=Greenfields
TTITLE6=Easy Rider Blues
TTITLE7=Blue Mountain
TTITLE8=So True Blues
TTITLE9=Fare Thee Well Oh Babe
TTITLE10=Windjammer
TTITLE11=Kari Waits For Me
TTITLE12=Delia
TTITLE13=Lonesome Whistle
TTITLE14=Wanderin' Blues
TTITLE15=Eddystone Light
TTITLE16=Drill Ye Tarriers
TTITLE17=East Virginia
TTITLE18=I Ride An Old Paint
TTITLE19=Sweet Sugar Cane
TTITLE20=Mayfield Mountain
TTITLE21=Rovin' Gambler
TTITLE22=Gambler's Blues
TTITLE23=Wanderin' Blues
TTITLE24=John Henry
TTITLE25=Lonesome Whistle
TTITLE26=Six Wheel Driver
TTITLE27=I'm Gonna Leave You Now (& Guy Mitchell)
TTITLE28=Sweet Sugar Cane
EXTD=
EXTT0=
EXTT1=
EXTT2=
EXTT3=
EXTT4=
EXTT5=
EXTT6=
EXTT7=
EXTT8=
EXTT9=
EXTT10=
EXTT11=
EXTT12=
EXTT13=
EXTT14=
EXTT15=
EXTT16=
EXTT17=
EXTT18=
EXTT19=
EXTT20=
EXTT21=
EXTT22=
EXTT23=
EXTT24=
EXTT25=
EXTT26=
EXTT27=
EXTT28=
PLAYORDER=
